{"title":"Super 8 2011 TS READNFO XViD - IMAGiNE","uid":6468372,"size":1510685478,"categoryP":"video","categoryS":"movies","magnet":"?xt=urn:btih:3756b0f2107a315aa9db280b8df90361eb373d05&amp;dn=Super+8+2011+TS+READNFO+XViD+-+IMAGiNE&amp;tr=udp%3A%2F%2Ftracker.openbittorrent.com%3A80&amp;tr=udp%3A%2F%2Fopen.demonii.com%3A1337&amp;tr=udp%3A%2F%2Ftracker.coppersurfer.tk%3A6969&amp;tr=udp%3A%2F%2Fexodus.desync.com%3A6969","seeders":0,"leechers":0,"uploader":"sceneline","files":105,"time":1308042817,"description":"- &lt;a href=&quot;\nhttp://www.Speed.Cd&quot; rel=&quot;nofollow&quot; target=&quot;_NEW&quot;&gt;\nhttp://www.Speed.Cd&lt;/a&gt; \n       &lt;a href=&quot;\nhttp://www.Speed.Cd&quot; rel=&quot;nofollow&quot; target=&quot;_NEW&quot;&gt;\nhttp://www.Speed.Cd&lt;/a&gt;       the fast  and The Hottest Private Tracker on the net\n\n(((--Registration will be open on june every weekend--)))\n\nPlease Seed back to make the speed Faster!!!\n\n------------------nfo--------------------------\n-      *********** ****    ****      ***      ******** *********** ****    *** **********\n           *+*     +*+*+* *+*+*+   *+* *+*   *+*    *+*    *+*     *+*+*   *+* *+*        \n           +*+     +*+ +*+*+ +*+  +*+   +*+  +*+           +*+     *+*+*+  +*+ +*+        \n           +$+     +$+  +*+  +$+ +$++*++$++* *$*           +$+     +$+ +*+ +$+ +$++*++$  \n           +$+     +$+       +$+ +$+     +$+ +$+   +$+$    +$+     +$+  +$+$+$ +$+        \n           $+$     $+$       $+$ $+$     $+$ $+$    $+$    $+$     $+$   $+$+$ $+$        \n       $$$$$$$$$$$ $$$       $$$ $$$     $$$  $$$$$$$$ $$$$$$$$$$$ $$$    $$$$ $$$$$$$$$$     \n                                                \n\n\n\n                           Another Fine Release Brought to you from - IMAGiNE                   \n                                                 \n\n********************************************************************************************************************                                \n                                Super 8 2011 TS READNFO XViD - IMAGiNE\n********************************************************************************************************************\n\nRipper ...........: IMAGiNE                                      IMDB Rating.......: 8.1/10                             \nVideo Codec.......: XVID                                         Release Date......: 13/06/11\nAudio Codec.......: MP3                                          Theatre Date......: 10/06/11\nAudio Bitrate.....: 128                                          Runtime.......: 1h 41mn\nSubtitles.........: NIL                                          Language..........: ENGLISH\nResolution......: 720 x 304                                      IMDb URL..........: http://www.imdb.com/title/tt1650062/\n\n\n[color=yellow]DETAILS:[/color]\n\nVideo\nID                               : 0\nFormat                           : MPEG-4 Visual\nFormat profile                   : Advanced Simple@L5\nFormat settings, BVOP            : 2\nFormat settings, QPel            : No\nFormat settings, GMC             : No warppoints\nFormat settings, Matrix          : Default (MPEG)\nMuxing mode                      : Packed bitstream\nCodec ID                         : XVID\nCodec ID/Hint                    : XviD\nDuration                         : 1h 41mn\nBit rate                         : 1 825 Kbps\nWidth                            : 720 pixels\nHeight                           : 304 pixels\nDisplay aspect ratio             : 2.35:1\nFrame rate                       : 23.976 fps\nColor space                      : YUV\nChroma subsampling               : 4:2:0\nBit depth                        : 8 bits\nScan type                        : Progressive\nCompression mode                 : Lossy\nBits/(Pixel*Frame)               : 0.348\nStream size                      : 1.30 GiB (93%)\nWriting library                  : XviD 61\n\nAudio\nID                               : 1\nFormat                           : MPEG Audio\nFormat version                   : Version 2\nFormat profile                   : Layer 3\nMode                             : Joint stereo\nMode extension                   : MS Stereo\nCodec ID                         : 55\nCodec ID/Hint                    : MP3\nDuration                         : 1h 41mn\nBit rate mode                    : Constant\nBit rate                         : 128 Kbps\nChannel(s)                       : 2 channels\nSampling rate                    : 44.1 KHz\nCompression mode                 : Lossy\nStream size                      : 93.3 MiB (7%)\nAlignment                        : Split accross interleaves\nInterleave, duration             : 42 ms (1.00 video frame)\nWriting library                  : LAME3.98r\n\n\n[color=yellow]SOURCES:[/color]\n\nVIDEO: .................. EP1C Thanx Mate :D\nAUDIO: .................. Thanx Mate :P\n\n[color=yellow]NOTES:[/color]\n\nIMAGiNE bringing you another release..........\nSuper 8 TS.........\nOk here we are with our first go at Super 8\nThe source files were very nice, \nthanks to EP1C for supplying us with those............\nSo first off we made a script to crop rotate and resize,\nAdjusted the white levels, RGB and sharpened it up abit.......\nNow there is a 55 second chunk missing from 48:49 to 50:44 \nnothing major but does seem to jump a scene so........\nAudio is LiNE we filtered synced and remuxed to our encode :P\nEnjoy Folks!\n\n\n[color=yellow]SCREENS:[/color]\n\n\n[color=yellow]GREETS:[/color]\n\nFLAWL3SS,ViSiON,FUSiON,Rx,SecretMyth,BirdFlu,ELEKTRI4KA,SERENiTY and Autotron\nAnd to all the other p2p grps past and present \n\n\n[COLOR=RED]Looking for these,syncers,cammers,silver supplier,Audio.....Have anything to offer????......\nContact us &lt;a class=&quot;__cf_email__&quot; href=&quot;/cdn-cgi/l/email-protection&quot; data-cfemail=&quot;452c2824222c2b2022372a3035052d30362d28242c296b262a28&quot;&gt;[email&amp;#160;protected]&lt;/a&gt;&lt;script cf-hash='f9e31' type=&quot;text/javascript&quot;&gt;\n/* &lt;![CDATA[ */!function(){try{var t=&quot;currentScript&quot;in document?document.currentScript:function(){for(var t=document.getElementsByTagName(&quot;script&quot;),e=t.length;e--;)if(t[e].getAttribute(&quot;cf-hash&quot;))return t[e]}();if(t&amp;&amp;t.previousSibling){var e,r,n,i,c=t.previousSibling,a=c.getAttribute(&quot;data-cfemail&quot;);if(a){for(e=&quot;&quot;,r=parseInt(a.substr(0,2),16),n=2;a.length-n;n+=2)i=parseInt(a.substr(n,2),16)^r,e+=String.fromCharCode(i);e=document.createTextNode(e),c.parentNode.replaceChild(e,c)}}}catch(u){}}();/* ]]&gt; */&lt;/script&gt;[/COLOR]","torrent":{"xt":"urn:btih:3756b0f2107a315aa9db280b8df90361eb373d05","amp;dn":"Super+8+2011+TS+READNFO+XViD+-+IMAGiNE","amp;tr":["udp%3A%2F%2Ftracker.openbittorrent.com%3A80","udp%3A%2F%2Fopen.demonii.com%3A1337","udp%3A%2F%2Ftracker.coppersurfer.tk%3A6969","udp%3A%2F%2Fexodus.desync.com%3A6969"],"infoHash":"3756b0f2107a315aa9db280b8df90361eb373d05","infoHashBuffer":{"type":"Buffer","data":[55,86,176,242,16,122,49,90,169,219,40,11,141,249,3,97,235,55,61,5]},"announce":[],"urlList":[]}}